<svg xmlns="http://www.w3.org/2000/svg" viewBox="0 0 1440 900">
  <style>
    .st0{fill:#821515}.st1{fill:#a51717}.st2{fill:#af1b1b}.st5{fill:#c62626}
  </style>
  <g id="Layer_1">
    <path class="st0" d="M862 613.3v.9c-.1 1.7-.7 3.4-1.6 5.1-2.9 5-9.3 9.9-18.7 14.4h-.1c-8.8 4.2-20.3 8.2-33.9 11.7-10.5 2.8-22.4 5.3-35.4 7.6-.2 0-.4.1-.6.1-5.9 1-12 2-18.3 2.9-3.2.5-6.4.9-9.6 1.3l-9.9 1.2c-1.4.2-2.8.3-4.2.5-.6.1-1.1.1-1.7.2-6.5.7-13.2 1.4-20.1 2-4.8.4-9.8.9-14.8 1.2-1 .1-2 .1-3 .2-.7 0-1.3.1-2 .1-2.6.2-5.2.4-7.9.5-4.7.3-9.4.6-14.2.8-1.7.1-3.4.2-5 .3-1.8.1-3.7.2-5.5.3-1.4.1-2.8.1-4.3.2-2 .1-4 .1-6 .2s-4 .1-6 .2-4 .1-6 .2c-4 .1-8.1.2-12.3.2-2 0-4.1 0-6.2.1-4.1 0-8.3.1-12.5.1-6.1 0-12.2 0-18.2-.1-1.4 0-2.9 0-4.3-.1-2.6 0-5.1-.1-7.7-.2-2 0-3.9-.1-5.9-.1-2 0-3.9-.1-5.9-.2-1.9 0-3.9-.1-5.8-.2s-3.9-.2-5.8-.2c-3.8-.2-7.6-.3-11.4-.5-1.9-.1-3.8-.2-5.6-.3-3.7-.2-7.4-.4-11.1-.7-1.8-.1-3.7-.3-5.5-.4-1.8-.1-3.6-.3-5.4-.4-1.7-.1-3.4-.3-5-.4-1.9-.2-3.8-.3-5.7-.5-3.5-.3-6.9-.6-10.3-1-5.1-.5-10.2-1-15.1-1.6-1.7-.2-3.3-.4-4.9-.6l-4.8-.6-4.8-.6c-2.5-.3-4.9-.7-7.3-1-.9-.1-1.9-.3-2.8-.4-1.3-.2-2.5-.4-3.7-.6-.3 0-.6-.1-.9-.2-1.2-.2-2.4-.4-3.5-.5-2.9-.5-5.8-1-8.6-1.5-1.6-.3-3.2-.6-4.7-.8-1.3-.2-2.5-.5-3.7-.7-2.5-.5-5-1-7.4-1.5-.2 0-.4-.1-.6-.1-1.2-.3-2.5-.5-3.7-.8-.1 0-.1 0-.2-.1-1.4-.3-2.7-.6-4-.9-1.8-.4-3.6-.8-5.4-1.3-.6-.1-1.2-.3-1.8-.4-1-.2-1.9-.5-2.8-.7-1.4-.4-2.8-.7-4.1-1.1-2.3-.6-4.5-1.2-6.6-1.9-2.1-.6-4.2-1.3-6.2-1.9-.5-.2-1-.3-1.5-.5l-2.7-.9c-.1 0-.1 0-.2-.1-1.4-.5-2.8-1-4.1-1.5-.9-.4-1.8-.7-2.6-1-2.5-1-4.9-2-7.1-3.1 0 0-.1 0-.1-.1-.8-.3-1.5-.7-2.2-1.1-.4-.2-.7-.4-1.1-.5-.3-.2-.7-.4-1-.5-.3-.2-.7-.4-1-.5-2.6-1.5-4.9-3-6.8-4.5-2.2-1.7-3.9-3.4-5.3-5.1-1.8-2.4-2.8-4.7-3-7.2v-.1-.8c0-12.5 21.5-24 57.5-33.1 1.9-.5 3.9-1 5.9-1.5 47.7-11.1 118.1-18.2 196.6-18.2 143.3.2 259.7 23.8 259.7 52.9z"/>
    <path class="st1" d="M780.9 320c.6-.9.9-1.9 1-2.9-.3 1-.7 2-1 2.9zM437 321.3c-1.1-2.4-1.8-3.8-2-4.2.2 1.4.9 2.8 2 4.2zM435 317.1c0-.1 0-.1 0 0 0-.1 0 0 0 0zM780.9 320v.1C747.9 411 720.2 485.2 735 590h-.2c.8 1.1 1.2 2.3 1.2 3.5 0 6-10.5 11.4-28 15.8-24 5.9-61.2 9.7-103 9.7-71.5 0-129.7-11.2-131-25h-2s5-4 5-98c0-48.1-11-93.8-21.7-127-7.5-23.1-14.8-40.1-18.3-47.7v-.1c.9 1.1 2.1 2.1 3.5 3.1.2.1.3.2.5.3.5.3 1 .7 1.6 1 .4.2.8.4 1.2.7.4.2.8.4 1.3.7l.6.3c.2.1.5.2.7.3.2.1.5.2.7.3l1.5.6h.1c1.5.6 3 1.2 4.7 1.8l1.8.6c.9.3 1.8.6 2.8.9h.1c.6.2 1.2.4 1.8.5.3.1.6.2 1 .3 1.3.4 2.7.8 4.1 1.2 1.4.4 2.9.8 4.4 1.1.9.2 1.8.4 2.7.7.6.1 1.3.3 1.9.4l1.2.3c1.2.3 2.4.5 3.6.8.9.2 1.8.4 2.7.5h.1c.8.2 1.6.3 2.5.5.1 0 .3 0 .4.1 1.6.3 3.3.6 5 .9.8.1 1.7.3 2.5.4 1 .2 2.1.3 3.2.5 1.9.3 3.8.6 5.8.9l2.4.3c.2 0 .4.1.6.1.8.1 1.7.2 2.5.3.6.1 1.2.2 1.9.2 1.6.2 3.3.4 4.9.6 1.1.1 2.1.3 3.2.4 1.1.1 2.2.2 3.2.4 1.1.1 2.2.2 3.3.4 3.3.3 6.7.7 10.1 1l6.9.6c1.3.1 2.5.2 3.8.3 1.1.1 2.2.2 3.4.2 1.2.1 2.4.2 3.6.2 1.2.1 2.4.2 3.7.2 2.4.2 4.9.3 7.4.4 1.3.1 2.5.1 3.8.2 2.5.1 5 .2 7.6.3 1.3.1 2.6.1 3.9.1 1.3 0 2.6.1 3.9.1 1.3 0 2.6.1 3.9.1 1.3 0 2.6.1 3.9.1 1.6 0 3.2.1 4.8.1H596.9c4 0 8 .1 12.1.1h12.4c2.7 0 5.5-.1 8.2-.1 1.4 0 2.7-.1 4-.1 1.3 0 2.7-.1 4-.1 1.3 0 2.7-.1 4-.1 1 0 1.9-.1 2.8-.1 1.2 0 2.5-.1 3.7-.1 1.1 0 2.3-.1 3.4-.2 3.2-.1 6.4-.3 9.5-.5 2.2-.1 4.4-.3 6.6-.4.7 0 1.3-.1 2-.1 3.3-.2 6.6-.5 9.8-.7 4.6-.4 9.1-.8 13.4-1.2.4 0 .8-.1 1.1-.1 1-.1 1.9-.2 2.8-.3 2.2-.2 4.5-.5 6.6-.7 2.2-.3 4.3-.5 6.4-.8 4.2-.5 8.3-1.1 12.2-1.7.1 0 .3-.1.4-.1 4.3-.7 8.5-1.4 12.4-2.2 1-.2 2-.4 2.9-.6 1-.2 1.9-.4 2.8-.6.9-.2 1.9-.4 2.8-.6l2.7-.6c1.7-.4 3.4-.8 5-1.2 1.1-.3 2.1-.6 3.1-.8 3.6-1 6.8-2 9.8-3.1 1.7-.6 3.3-1.2 4.7-1.9h.1c.4-.2.8-.3 1.2-.5.8-.3 1.5-.7 2.2-1 .7-.4 1.4-.7 2-1.1 3.2-1.8 5.6-3.9 6.9-6zM782 317v0z"/>
    <path class="st2" d="M862 607.3v.9c-.1 1.7-.7 3.4-1.6 5.1-2.9 5-9.3 9.9-18.7 14.4h-.1c-8.8 4.2-20.3 8.2-33.9 11.7-10.5 2.8-22.4 5.3-35.4 7.6-.2 0-.4.1-.6.1-5.9 1-12 2-18.3 2.9-3.2.5-6.4.9-9.6 1.3l-9.9 1.2c-1.4.2-2.8.3-4.2.5-.6.1-1.1.1-1.7.2-6.5.7-13.2 1.4-20.1 2-4.8.4-9.8.9-14.8 1.2-1 .1-2 .1-3 .2-.7 0-1.3.1-2 .1-2.6.2-5.2.4-7.9.5-4.7.3-9.4.6-14.2.8-1.7.1-3.4.2-5 .3-1.8.1-3.7.2-5.5.3-1.4.1-2.8.1-4.3.2-2 .1-4 .1-6 .2s-4 .1-6 .2-4 .1-6 .2c-4 .1-8.1.2-12.3.2-2 0-4.1 0-6.2.1-4.1 0-8.3.1-12.5.1-6.1 0-12.2 0-18.2-.1-1.4 0-2.9 0-4.3-.1-2.6 0-5.1-.1-7.7-.2-2 0-3.9-.1-5.9-.1-2 0-3.9-.1-5.9-.2-1.9 0-3.9-.1-5.8-.2s-3.9-.2-5.8-.2c-3.8-.2-7.6-.3-11.4-.5-1.9-.1-3.8-.2-5.6-.3-3.7-.2-7.4-.4-11.1-.7-1.8-.1-3.7-.3-5.5-.4-1.8-.1-3.6-.3-5.4-.4-1.7-.1-3.4-.3-5-.4-1.9-.2-3.8-.3-5.7-.5-3.5-.3-6.9-.6-10.3-1-5.1-.5-10.2-1-15.1-1.6-1.7-.2-3.3-.4-4.9-.6l-4.8-.6-4.8-.6c-2.5-.3-4.9-.7-7.3-1-.9-.1-1.9-.3-2.8-.4-1.3-.2-2.5-.4-3.7-.6-.3 0-.6-.1-.9-.2-1.2-.2-2.4-.4-3.5-.5-2.9-.5-5.8-1-8.6-1.5-1.6-.3-3.2-.6-4.7-.8-1.3-.2-2.5-.5-3.7-.7-2.5-.5-5-1-7.4-1.5-.2 0-.4-.1-.6-.1-1.2-.3-2.5-.5-3.7-.8-.1 0-.1 0-.2-.1-1.4-.3-2.7-.6-4-.9-1.8-.4-3.6-.8-5.4-1.3-.6-.1-1.2-.3-1.8-.4-1-.2-1.9-.5-2.8-.7-1.4-.4-2.8-.7-4.1-1.1-2.3-.6-4.5-1.2-6.6-1.9-2.1-.6-4.2-1.3-6.2-1.9-.5-.2-1-.3-1.5-.5l-2.7-.9c-.1 0-.1 0-.2-.1-1.4-.5-2.8-1-4.1-1.5-.9-.4-1.8-.7-2.6-1-2.5-1-4.9-2-7.1-3.1 0 0-.1 0-.1-.1-.8-.3-1.5-.7-2.2-1.1-.4-.2-.7-.4-1.1-.5-.3-.2-.7-.4-1-.5-.3-.2-.7-.4-1-.5-2.6-1.5-4.9-3-6.8-4.5-2.2-1.7-3.9-3.4-5.3-5.1-1.8-2.4-2.8-4.7-3-7.2v-.1-.8c0-12.5 21.5-24 57.5-33.1 1.9-.5 3.9-1 5.9-1.5 47.7-11.1 118.1-18.2 196.6-18.2 143.3.2 259.7 23.8 259.7 52.9z"/>
    <path class="st1" d="M780.9 320c.6-.9.9-1.9 1-2.9-.3 1-.7 2-1 2.9zM437 321.3c-1.1-2.4-1.8-3.8-2-4.2.2 1.4.9 2.8 2 4.2zM435 317.1c0-.1 0-.1 0 0 0-.1 0 0 0 0zM780.9 320v.1C747.9 411 720.2 485.2 735 590h-.2c.8 1.1 1.2 2.3 1.2 3.5 0 6-10.5 11.4-28 15.8-24 5.9-61.2 9.7-103 9.7-71.5 0-129.7-11.2-131-25h-2s5-4 5-98c0-48.1-11-93.8-21.7-127H701s-53.5-12.2-107.8-21.1H596.4c4 0 8 .1 12.1.1h12.4c2.7 0 5.5-.1 8.2-.1 1.4 0 2.7-.1 4-.1 1.3 0 2.7-.1 4-.1 1.3 0 2.7-.1 4-.1 1 0 1.9-.1 2.8-.1 1.2 0 2.5-.1 3.7-.1 1.1 0 2.3-.1 3.4-.2 3.2-.1 6.4-.3 9.5-.5 2.2-.1 4.4-.3 6.6-.4.7 0 1.3-.1 2-.1 3.3-.2 6.6-.5 9.8-.7 4.6-.4 9.1-.8 13.4-1.2.4 0 .8-.1 1.1-.1 1-.1 1.9-.2 2.8-.3 2.2-.2 4.5-.5 6.6-.7 2.2-.3 4.3-.5 6.4-.8 4.2-.5 8.3-1.1 12.2-1.7.1 0 .3-.1.4-.1 4.3-.7 8.5-1.4 12.4-2.2 1-.2 2-.4 2.9-.6 1-.2 1.9-.4 2.8-.6.9-.2 1.9-.4 2.8-.6l2.7-.6c1.7-.4 3.4-.8 5-1.2 1.1-.3 2.1-.6 3.1-.8 3.6-1 6.8-2 9.8-3.1 1.7-.6 3.3-1.2 4.7-1.9h.1c.4-.2.8-.3 1.2-.5.8-.3 1.5-.7 2.2-1 .7-.4 1.4-.7 2-1.1 3.7-2.2 6.1-4.3 7.4-6.4zM782 317v0z"/>
    <g>
      <path class="st0" d="M708 609.3c-24 5.9-61.2 9.7-103 9.7-71.5 0-129.7-11.2-131-25h-2s5-4 5-98c0-48.1-11-93.8-21.7-127-7.5-23.1-14.8-40.1-18.3-47.7-1.2-1.4-1.9-2.8-2-4.3v-.1-.5c0-7.9 16-15.1 42.3-20.6 2.1 2.7 4.1 5.4 6 8.4 5.9 8.7 11.3 18.5 16.3 29.4 1.2 2.6 2.3 5.2 3.5 7.9 3.6 8.6 6.9 17.8 9.9 27.5 11.1 36.1 17.5 79 17.5 125 0 32.8-3.3 64.1-9.2 92.4 3 1.2 6 2.2 9.2 3.1 29.2 8.1 116 15.4 177.5 19.8z"/>
    </g>
    <g>
      <path class="st2" d="M782 316.5v.6c-.1 1-.5 2-1.1 3-1.3 2.1-3.7 4.1-7.1 6-.6.4-1.3.7-2 1.1-.7.3-1.4.7-2.2 1-.4.2-.8.3-1.2.5h-.1c-1.5.6-3 1.3-4.7 1.9-3 1.1-6.2 2.1-9.8 3.1-1 .3-2.1.6-3.1.8-1.6.4-3.3.8-5 1.2l-2.7.6c-.9.2-1.8.4-2.8.6-.9.2-1.9.4-2.8.6-1 .2-1.9.4-2.9.6-3.9.8-8.1 1.5-12.4 2.2-.1 0-.3 0-.4.1-3.9.6-8 1.2-12.2 1.7-2.1.3-4.3.5-6.4.8-2.2.3-4.4.5-6.6.7-.9.1-1.9.2-2.8.3-.4 0-.8.1-1.1.1-4.4.4-8.8.8-13.4 1.2-3.2.3-6.5.5-9.8.7-.7.1-1.3.1-2 .1-2.2.1-4.4.3-6.6.4-3.1.2-6.3.3-9.5.5-1.1.1-2.2.1-3.4.2-1.2.1-2.5.1-3.7.1-1 0-1.9.1-2.8.1-1.3 0-2.7.1-4 .1-1.3 0-2.7.1-4 .1-1.3 0-2.7.1-4 .1-2.7.1-5.4.1-8.2.1h-12.4c-4.1 0-8.1 0-12.1-.1H593.5c-1.6 0-3.2 0-4.8-.1-1.3 0-2.6-.1-3.9-.1-1.3 0-2.6-.1-3.9-.1-1.3 0-2.6-.1-3.9-.1-1.3 0-2.6-.1-3.9-.1-2.5-.1-5.1-.2-7.6-.3-1.3-.1-2.5-.1-3.8-.2-2.5-.1-5-.3-7.4-.4-1.2-.1-2.4-.2-3.7-.2-1.2-.1-2.4-.2-3.6-.2-1.1-.1-2.3-.2-3.4-.2-1.3-.1-2.5-.2-3.8-.3l-6.9-.6c-3.4-.3-6.8-.6-10.1-1-1.1-.1-2.2-.2-3.3-.4-1.1-.1-2.2-.2-3.2-.4-1.1-.1-2.1-.3-3.2-.4-1.6-.2-3.3-.4-4.9-.6-.6-.1-1.2-.2-1.9-.2-.8-.1-1.7-.2-2.5-.3-.2 0-.4-.1-.6-.1l-2.4-.3c-1.9-.3-3.9-.6-5.8-.9-1.1-.2-2.1-.3-3.2-.5-.8-.1-1.7-.3-2.5-.4-1.7-.3-3.3-.6-5-.9-.1 0-.3-.1-.4-.1-.8-.2-1.7-.3-2.5-.5h-.1c-.9-.2-1.8-.4-2.7-.5-1.2-.3-2.4-.5-3.6-.8l-1.2-.3c-.6-.1-1.3-.3-1.9-.4-.9-.2-1.8-.4-2.7-.7-1.5-.4-3-.7-4.4-1.1s-2.8-.8-4.1-1.2c-.3-.1-.7-.2-1-.3-.6-.2-1.2-.4-1.8-.5h-.1c-.9-.3-1.9-.6-2.8-.9l-1.8-.6c-1.7-.6-3.3-1.2-4.7-1.8h-.1l-1.5-.6c-.2-.1-.5-.2-.7-.3-.2-.1-.4-.2-.7-.3l-.6-.3c-.4-.2-.9-.4-1.3-.7-.4-.2-.8-.5-1.2-.7-.6-.3-1.1-.7-1.6-1-.2-.1-.3-.2-.5-.3-1.4-1-2.6-2-3.5-3.1-1.2-1.4-1.9-2.8-2-4.3v-.1-.5c0-7.9 16-15.1 42.3-20.6 11.6-2.4 25.2-4.5 40.4-6.2 26.4-2.9 57.5-4.6 90.8-4.6 96 0 173.7 14.1 173.7 31.5z"/>
    </g>
    <g>
      <path class="st0" d="M687.8 657.1c-2.6.2-5.2.4-7.9.5-4.7.3-9.4.6-14.2.8-1.7.1-3.4.2-5 .3-1.8.1-3.7.2-5.5.3-1.4.1-2.8.1-4.3.2-2 .1-4 .1-6 .2s-4 .1-6 .2-4 .1-6 .2c-4 .1-8.1.2-12.3.2-2 0-4.1 0-6.2.1-4.1 0-8.3.1-12.5.1-6.1 0-12.2 0-18.2-.1-1.4 0-2.9 0-4.3-.1-2.6 0-5.1-.1-7.7-.2-2 0-3.9-.1-5.9-.1-2 0-3.9-.1-5.9-.2-1.9 0-3.9-.1-5.8-.2s-3.9-.2-5.8-.2c-3.8-.2-7.6-.3-11.4-.5-1.9-.1-3.8-.2-5.6-.3-3.7-.2-7.4-.4-11.1-.7-1.8-.1-3.7-.3-5.5-.4-1.8-.1-3.6-.3-5.4-.4-1.7-.1-3.4-.3-5-.4-1.9-.2-3.8-.3-5.7-.5-3.5-.3-6.9-.6-10.3-1-5.1-.5-10.2-1-15.1-1.6-1.7-.2-3.3-.4-4.9-.6l-4.8-.6-4.8-.6c-2.5-.3-4.9-.7-7.3-1-.9-.1-1.9-.3-2.8-.4-1.3-.2-2.5-.4-3.7-.6-.3 0-.6-.1-.9-.2-1.2-.2-2.4-.4-3.5-.5-2.9-.5-5.8-1-8.6-1.5-1.6-.3-3.2-.6-4.7-.8-1.3-.2-2.5-.5-3.7-.7-2.5-.5-5-1-7.4-1.5-.2 0-.4-.1-.6-.1-1.2-.3-2.5-.5-3.7-.8-.1 0-.1 0-.2-.1-1.4-.3-2.7-.6-4-.9-1.8-.4-3.6-.8-5.4-1.3-.6-.1-1.2-.3-1.8-.4-1-.2-1.9-.5-2.8-.7-1.4-.4-2.8-.7-4.1-1.1-2.3-.6-4.5-1.2-6.6-1.9-2.1-.6-4.2-1.3-6.2-1.9-.5-.2-1-.3-1.5-.5l-2.7-.9c-.1 0-.1 0-.2-.1-1.4-.5-2.8-1-4.1-1.5-.9-.4-1.8-.7-2.6-1-2.5-1-4.9-2-7.1-3.1 0 0-.1 0-.1-.1-.8-.3-1.5-.7-2.2-1.1-.4-.2-.7-.4-1.1-.5-.3-.2-.7-.4-1-.5-.3-.2-.7-.4-1-.5-2.6-1.5-4.9-3-6.8-4.5-2.2-1.7-3.9-3.4-5.3-5.1-1.8-2.4-2.8-4.7-3-7.2v-.1-.8c0-12.5 21.5-24 57.5-33.1-10 10.6-15.3 22.7-3.5 32.8 28 24 97 35 151 41 30.4 3.1 92.4 6.5 140.8 8.8z"/>
    </g>
    <g>
      <path d="M593.2 347.9c-1.6 0-3.2 0-4.8-.1-1.3 0-2.6-.1-3.9-.1-1.3 0-2.6-.1-3.9-.1-1.3 0-2.6-.1-3.9-.1-1.3 0-2.6-.1-3.9-.1-2.5-.1-5.1-.2-7.6-.3-1.3-.1-2.5-.1-3.8-.2-2.5-.1-5-.3-7.4-.4-1.2-.1-2.4-.2-3.7-.2-1.2-.1-2.4-.2-3.6-.2-1.1-.1-2.3-.2-3.4-.2-1.3-.1-2.5-.2-3.8-.3l-6.9-.6c-3.4-.3-6.8-.6-10.1-1-1.1-.1-2.2-.2-3.3-.4-1.1-.1-2.2-.2-3.2-.4-1.1-.1-2.1-.3-3.2-.4-1.6-.2-3.3-.4-4.9-.6-.6-.1-1.2-.2-1.9-.2-.8-.1-1.7-.2-2.5-.3-.2 0-.4-.1-.6-.1l-2.4-.3c-1.9-.3-3.9-.6-5.8-.9-1.1-.2-2.1-.3-3.2-.5-.8-.1-1.7-.3-2.5-.4-1.7-.3-3.3-.6-5-.9-.1 0-.3-.1-.4-.1-.8-.2-1.7-.3-2.5-.5h-.1c-.9-.2-1.8-.4-2.7-.5-1.2-.3-2.4-.5-3.6-.8l-1.2-.3c-.6-.1-1.3-.3-1.9-.4-.9-.2-1.8-.4-2.7-.7-1.5-.4-3-.7-4.4-1.1-1.4-.4-2.8-.8-4.1-1.2-.3-.1-.7-.2-1-.3-.6-.2-1.2-.4-1.8-.5h-.1c-.9-.3-1.9-.6-2.8-.9l-1.8-.6c-1.7-.6-3.3-1.2-4.7-1.8h-.1l-1.5-.6c-.2-.1-.5-.2-.7-.3-.2-.1-.4-.2-.7-.3l-.6-.3c-.4-.2-.9-.4-1.3-.7-.4-.2-.8-.5-1.2-.7-.6-.3-1.1-.7-1.6-1-.2-.1-.3-.2-.5-.3-1.5-1-2.6-2.1-3.5-3.1v.1c-1.2-1.4-1.9-2.8-2-4.3v-.1-.5c0-7.9 16-15.1 42.3-20.6 11.6-2.4 25.2-4.5 40.4-6.2-12.8 4.9-25.4 10-34.4 14.6-10 5-15.6 9.3-12.4 11.8 8.1 6.1 8.9 12.2 28.6 17.6 9.5 2.6 23.3 5.1 44.4 7.4 16 1.3 32.9 3.7 49.8 6.5z" fill="#a31a1a"/>
    </g>
    <g>
      <path d="M751 335s-16 3-25 5-30 4-30 4 6 67 2 119 7 146 7 146l17-4s-14-87-4-140 33-130 33-130z" fill="#aa1d1d"/>
    </g>
    <g>
      <path class="st5" d="M788 582s66 13 58 27-77 25-77 25 53-16 53-27-34-25-34-25z"/>
    </g>
    <g>
      <path class="st5" d="M692 298s66 9.3 58 19.2c-8 10-77 17.8-77 17.8s53-11.4 53-19.2c0-7.8-34-17.8-34-17.8z"/>
    </g>
  </g>
</svg>
